<?xml version="1.0" encoding="iso-8859-1"?>
<!-- Uploaded to: SVG Repo, www.svgrepo.com, Generator: SVG Repo Mixer Tools -->
<svg height="800px" width="800px" version="1.1" id="Layer_1" xmlns="http://www.w3.org/2000/svg" xmlns:xlink="http://www.w3.org/1999/xlink" 
	 viewBox="0 0 215.8 215.8" xml:space="preserve">
<g>
	<g>
		<circle style="fill:#FFEB70;" cx="107.9" cy="107.9" r="107.9"/>
		<g>
			<g>
				<path style="fill:#56943E;" d="M109.196,61.6c0,0,9.077-0.519,14.782-7.521c5.706-7.002,17.918-12.708,26.854-10.115
					c8.936,2.594,13.601,8.559,16.974,10.115c0,0-9.075,11.151-24.636,14.523c-15.562,3.372-15.562-6.743-33.975-5.965L109.196,61.6
					L109.196,61.6z"/>
				<path style="fill:#4A8036;" d="M124.437,58.36c-3.575,1.194-10.72,2.65-15.24,3.516v0.761c1.565-0.066,2.988-0.048,4.31,0.028
					c7.532-1.314,17.451-5.165,29.627-7.404c12.766-2.348,20.734-1.25,24.074-0.5c0.395-0.432,0.6-0.683,0.6-0.683
					c-0.533-0.246-1.103-0.611-1.713-1.046C150.854,50.147,137.66,53.944,124.437,58.36z"/>
				<path style="fill:#4A8036;" d="M147.343,52.543c0,0,2.479-4.271-0.809-8.552C146.534,43.991,153.215,48.619,147.343,52.543z"/>
				<path style="fill:#4A8036;" d="M133.117,46.854c0,0,4.749,1.043,3.785,7.729C136.902,54.583,135.83,50.082,133.117,46.854z"/>
				<path style="fill:#4A8036;" d="M151.739,54.093c0,0,4.293,4.759,0.301,11.553C152.04,65.646,152.82,60.332,151.739,54.093z"/>
				<path style="fill:#4A8036;" d="M142.154,55.446c0,0,6.309,7.686-1.415,13.594C140.739,69.039,144.037,62.985,142.154,55.446z"/>
				<path style="fill:#4A8036;" d="M132.763,57.606c0,0,2.449,7.404-3.034,10.101C129.729,67.707,132.197,64.644,132.763,57.606z"/>
			</g>
			<path style="fill:#934F21;" d="M110.751,56.822c-1.626-1.711-4.407,0.887-4.926,7.89c-0.52,7.002-2.075,23.6-2.075,23.6h3.631
				c0,0,3.371-18.413,3.631-21.006C111.271,64.712,112.827,59.006,110.751,56.822z"/>
			<path style="fill:#8CC375;" d="M106.604,84.163c2.871,0,4.976-0.519,10.373-4.928c5.399-4.409,21.267-11.671,33.975,0
				c12.707,11.67,17.117,25.934,12.449,46.682c-4.669,20.747-17.895,43.571-34.753,45.905c-16.857,2.333-14.004-2.335-22.044-2.335
				s-5.187,4.668-22.044,2.335c-16.857-2.334-30.084-25.157-34.753-45.905s-0.259-35.011,12.449-46.682
				c12.707-11.671,28.576-4.409,33.975,0C101.628,83.644,103.732,84.163,106.604,84.163z"/>
		</g>
	</g>
</g>
</svg>