<?xml version="1.0" encoding="iso-8859-1"?>
<!-- Uploaded to: SVG Repo, www.svgrepo.com, Generator: SVG Repo Mixer Tools -->
<svg height="800px" width="800px" version="1.1" id="Layer_1" xmlns="http://www.w3.org/2000/svg" xmlns:xlink="http://www.w3.org/1999/xlink" 
	 viewBox="0 0 512 512" xml:space="preserve">
<path style="fill:#EE2712;" d="M484.833,437.619c15.004,0,27.167-12.164,27.167-27.167V101.547
	c0-15.004-12.164-27.167-27.167-27.167H27.167C12.164,74.379,0,86.543,0,101.547v308.906c0,15.004,12.164,27.167,27.167,27.167
	h457.665V437.619z M113.711,313.712c0,13.541-10.977,24.517-24.517,24.517s-24.517-10.977-24.517-24.517V198.287
	c0-13.541,10.977-24.517,24.517-24.517s24.517,10.977,24.517,24.517V313.712z"/>
<path style="fill:#FF5D3D;" d="M256,74.379H27.167C12.164,74.379,0,86.543,0,101.547v308.906c0,15.004,12.164,27.167,27.167,27.167
	H256V74.379z M89.194,338.23c-13.541,0-24.517-10.977-24.517-24.517V198.287c0-13.541,10.977-24.517,24.517-24.517
	s24.517,10.977,24.517,24.517v115.427C113.711,327.253,102.734,338.23,89.194,338.23z"/>
</svg>